<?xml version="1.0" encoding="utf-8"?>
<!-- Generator: Adobe Illustrator 28.7.6, SVG Export Plug-In . SVG Version: 9.03 Build 56771)  -->
<svg version="1.1" id="Capa_2_00000028306080031965572660000008754912417242326692_"
	 xmlns="http://www.w3.org/2000/svg" xmlns:xlink="http://www.w3.org/1999/xlink" x="0px" y="0px" viewBox="0 0 166.3 69.9"
	 style="enable-background:new 0 0 166.3 69.9;" xml:space="preserve">
<g id="Capa_1-2">
	<path d="M59.9,29c-2-3.6-4-7.1-6.1-10.5c-3.4,2-7,4.2-10.4,5.9V12.5H31.2v12c-3.5-2-7-4-10.5-6c-2,3.6-4.1,6.9-6,10.5
		c3.5,2,7,3.9,10.4,6c-3.5,2-6.8,4-10.4,5.9c2,3.6,4,7.1,6.1,10.5c3.4-2,6.8-4,10.4-5.9v11.9h12.2v-12c3.5,2,7,4,10.5,6
		c2-3.5,4.1-6.9,6-10.5c-3.5-2-7-3.9-10.4-6C53,32.9,56.4,30.9,59.9,29L59.9,29z M36.2,18.1c0.2-0.7,1.6-1,2.2-0.4
		c0.4,1,0.1,2.7,0.2,4.1c-0.5-0.7-1.2-1.2-2.4-1L36.2,18.1L36.2,18.1z M36.5,34.7c0-3.6-0.2-7.1-0.2-10.8c0.8-0.3,1.7-0.4,2.1-1.1
		C38.1,25.7,39.6,34.6,36.5,34.7L36.5,34.7z M34.2,22.1c0.6-0.7,4.2-1.7,4,0.2c-0.1,1.4-3.4,0.8-3.6,2.5c-0.2,1.9,2,2.2,1.2,5.1
		C33.7,28.6,32.3,24.2,34.2,22.1z M36.9,50.9c-0.1-1.3-0.2-3-0.1-4.2c0.3-0.4,0.7-0.8,1.1-1c0.5,2.1-0.2,5.8-0.2,7.3
		C36.6,53.3,37,51.8,36.9,50.9L36.9,50.9z M38,52.2c0.4-0.8,0.5-1.8,0.6-2.8C39.4,50,39.1,52.1,38,52.2z M38.4,45
		c-1.1,0.9-2.5,1.3-2.2,3.5c-0.5-0.5-0.7-1.1-0.7-1.9c0-2.7,4.1-3.1,3.4-6.7C40.3,41.3,39.8,43.7,38.4,45L38.4,45z M38.1,37.3
		c0.1,2.2,0.7,5.8-1.4,6.2C36.7,41,36.1,38,38.1,37.3z M36,39.7c-0.7-0.5-1.3-1.8-1.1-2.7c0.4-1.7,3.6-2.1,4.1-4.4
		c0.2-0.8-0.1-1.6,0-3c1.2,0.9,1.8,2.2,1.8,3.6C40.7,36.6,36.4,36.5,36,39.7L36,39.7z"/>
	<path d="M44.8,66.4l5.6-5.4l0.5-0.2c9.9-4.7,15.6-14.3,15.6-25.9c0-16-13.1-29-29.3-29s-29.3,13-29.3,29s13.1,29,29.3,29
		c1.9,0,3.4-0.1,5.2-0.5l0.4-0.1l-3.4,4l-0.6,0c-0.7,0-0.7,0-1.4,0c-18.1,0-32.7-14.5-32.7-32.4S19.3,2.5,37.4,2.5
		S70.1,17,70.1,34.9c0,15.5-10.9,28.4-25.5,31.6L44.8,66.4z"/>
	<path d="M86.4,49.1c0-5.1,0.9-8.9,2.7-11.3s4.7-3.7,8.6-3.7s6.7,1.2,8.5,3.7S109,44,109,49.1s-0.9,8.9-2.7,11.3s-4.7,3.7-8.5,3.7
		s-6.7-1.2-8.6-3.7S86.4,54.3,86.4,49.1z M91.3,49.1c0,3.7,0.5,6.4,1.5,8.1c1,1.7,2.6,2.5,4.9,2.5s3.8-0.8,4.8-2.5
		c1-1.7,1.5-4.4,1.5-8.1s-0.5-6.4-1.5-8.1s-2.6-2.5-4.8-2.5s-3.8,0.8-4.9,2.5C91.9,42.8,91.3,45.5,91.3,49.1z"/>
	<path d="M114.4,49.8c0-10.4,3.8-15.6,11.5-15.6c1.7,0,3.2,0.2,4.5,0.7s2.3,1,3,1.7c0.5,0.5,0.7,1,0.7,1.6s-0.2,1.1-0.7,1.5
		c-0.4,0.4-1,0.7-1.6,0.7c-0.4,0-0.9-0.2-1.4-0.4c-0.7-0.5-1.4-0.8-2.1-1.1c-0.7-0.2-1.5-0.4-2.5-0.4c-2.1,0-3.8,0.7-4.9,2.2
		s-1.7,3.5-1.7,6.2c0.7-0.8,1.7-1.4,2.9-1.9c1.2-0.5,2.4-0.7,3.8-0.7c3.1,0,5.6,0.8,7.5,2.6c1.9,1.7,2.8,4.1,2.8,7.2
		c0,1.7-0.3,3.2-0.8,4.5s-1.3,2.3-2.3,3.2c-1,0.8-2.1,1.4-3.4,1.8c-1.3,0.4-2.8,0.6-4.4,0.6c-1.9,0-3.5-0.4-4.9-1.1
		c-1.4-0.7-2.5-1.7-3.4-3s-1.5-2.8-1.9-4.5S114.4,51.9,114.4,49.8z M119.3,52.3c0,2.4,0.5,4.2,1.5,5.5c1,1.3,2.5,2,4.3,2
		s3.3-0.5,4.4-1.4s1.6-2.3,1.6-4.3c0-1.8-0.5-3.1-1.6-4s-2.4-1.4-4.1-1.4C122.8,48.7,120.7,49.9,119.3,52.3L119.3,52.3z"/>
	<path d="M140.7,40.9c0-0.9,0.3-1.6,1-2l6.2-4c0.6-0.3,1.1-0.5,1.5-0.5c0.7,0,1.2,0.2,1.7,0.7c0.5,0.5,0.7,1.1,0.7,1.7v24.6
		c0,0.7-0.2,1.2-0.7,1.7c-0.5,0.5-1.1,0.7-1.7,0.7s-1.2-0.2-1.7-0.7c-0.5-0.5-0.7-1-0.7-1.7V41.1l-2.5,1.7c-0.4,0.3-0.9,0.5-1.4,0.5
		c-0.6,0-1.2-0.2-1.7-0.7C140.9,42.1,140.7,41.5,140.7,40.9L140.7,40.9z"/>
	<path d="M76.6,24.4c0-0.5,0.2-0.9,0.5-1.3s0.8-0.5,1.3-0.5s1,0.2,1.5,0.8c1.7,1.8,3.6,2.6,5.6,2.6c3.1,0,4.6-1,4.6-3.1
		c0-0.5-0.1-1-0.4-1.4c-0.3-0.4-0.7-0.8-1.1-1s-1-0.5-1.7-0.8s-1.3-0.5-2-0.7c-0.7-0.2-1.4-0.5-2.1-0.7s-1.3-0.6-2-0.9
		s-1.2-0.8-1.7-1.2c-0.5-0.5-0.9-1.1-1.1-1.8s-0.4-1.5-0.4-2.4c0-1.8,0.7-3.3,2-4.5s3.3-1.8,5.9-1.8c1.7,0,3.2,0.3,4.6,0.9
		s2.4,1.4,3.1,2.3c0.2,0.3,0.3,0.7,0.3,1.1c0,0.5-0.2,0.9-0.5,1.3c-0.4,0.4-0.8,0.5-1.3,0.5c-0.4,0-0.9-0.2-1.5-0.8
		c-0.6-0.5-1.3-1-2.1-1.3s-1.8-0.5-2.7-0.5c-1.3,0-2.3,0.3-2.9,0.8s-1,1.2-1,1.9c0,0.5,0.1,0.9,0.4,1.3c0.3,0.4,0.7,0.7,1.1,0.9
		s1,0.5,1.7,0.7c0.6,0.2,1.3,0.4,2,0.7s1.4,0.5,2.1,0.7s1.3,0.6,2,1c0.6,0.4,1.2,0.8,1.7,1.3c0.5,0.5,0.9,1.1,1.1,1.8
		s0.4,1.5,0.4,2.5c0,2.1-0.7,3.7-2.2,4.9c-1.5,1.2-3.6,1.8-6.4,1.8c-1.9,0-3.7-0.4-5.2-1.2s-2.7-1.8-3.4-2.9
		C76.7,25.1,76.7,24.7,76.6,24.4L76.6,24.4z"/>
	<path d="M95.9,27.4c0-0.3,0-0.5,0.1-0.7l8.1-19.5c0.1-0.3,0.4-0.6,0.7-0.8s0.7-0.4,1.2-0.4s0.9,0.1,1.2,0.4s0.5,0.5,0.7,0.8
		l8.1,19.5c0.1,0.2,0.1,0.5,0.1,0.7c0,0.5-0.2,1-0.6,1.4c-0.4,0.4-0.9,0.6-1.4,0.6c-0.4,0-0.8-0.1-1.1-0.4c-0.3-0.2-0.6-0.5-0.7-0.9
		l-2.1-5h-8.3l-2.1,5c-0.2,0.4-0.4,0.7-0.7,0.9s-0.7,0.4-1.1,0.4c-0.5,0-1-0.2-1.4-0.6C96.1,28.3,95.9,27.9,95.9,27.4L95.9,27.4z
		 M103.1,19.5h5.6l-2.8-7.1L103.1,19.5L103.1,19.5z"/>
	<path d="M118.5,27.4V7.9c0-0.5,0.2-1,0.6-1.4c0.4-0.4,0.8-0.6,1.4-0.6c0.8,0,1.4,0.4,1.8,1.1l7.3,12.9L136.7,7
		c0.4-0.7,1-1.1,1.8-1.1c0.5,0,1,0.2,1.4,0.6s0.6,0.8,0.6,1.4v19.5c0,0.5-0.2,1-0.6,1.4c-0.4,0.4-0.8,0.6-1.4,0.6
		c-0.5,0-1-0.2-1.4-0.6c-0.4-0.4-0.6-0.8-0.6-1.4V15l-5.4,9.5c-0.4,0.6-0.9,0.9-1.7,0.9c-0.8,0-1.3-0.3-1.7-0.9l-5.4-9.5v12.4
		c0,0.5-0.2,1-0.6,1.4c-0.4,0.4-0.9,0.6-1.4,0.6s-1-0.2-1.4-0.6S118.5,27.9,118.5,27.4L118.5,27.4z"/>
	<path d="M144.5,21.6V7.9c0-0.6,0.2-1,0.6-1.4c0.4-0.4,0.9-0.6,1.4-0.6s1,0.2,1.4,0.6s0.6,0.8,0.6,1.4v13.7c0,0.6,0.1,1.1,0.2,1.6
		s0.4,1,0.7,1.4c0.3,0.5,0.8,0.8,1.4,1.1c0.6,0.3,1.4,0.4,2.3,0.4s1.7-0.1,2.3-0.4c0.6-0.3,1.1-0.6,1.4-1.1c0.3-0.5,0.5-0.9,0.7-1.4
		c0.1-0.5,0.2-1,0.2-1.6V7.9c0-0.6,0.2-1,0.6-1.4s0.9-0.6,1.4-0.6s1,0.2,1.4,0.6s0.6,0.8,0.6,1.4v13.7c0,0.8-0.1,1.6-0.2,2.3
		c-0.1,0.7-0.4,1.4-0.8,2.1s-0.9,1.3-1.5,1.8c-0.6,0.5-1.5,0.9-2.5,1.2s-2.2,0.5-3.5,0.5s-2.5-0.1-3.6-0.5s-1.9-0.7-2.5-1.2
		c-0.6-0.5-1.1-1.1-1.5-1.8c-0.4-0.7-0.7-1.4-0.8-2.1S144.4,22.4,144.5,21.6L144.5,21.6z"/>
</g>
</svg>
