<?xml version="1.0" encoding="utf-8"?>
<!-- Generator: Adobe Illustrator 28.7.8, SVG Export Plug-In . SVG Version: 9.03 Build 56881)  -->
<svg version="1.1" id="Capa_2_00000141434796816839080380000002263385241861183402_"
	 xmlns="http://www.w3.org/2000/svg" xmlns:xlink="http://www.w3.org/1999/xlink" x="0px" y="0px" viewBox="0 0 89.3 95.6"
	 style="enable-background:new 0 0 89.3 95.6;" xml:space="preserve">
<style type="text/css">
	.st0{fill:#1D1D1B;}
	.st1{fill:#E63843;}
</style>
<g id="Capa_1-2">
	<g>
		<polygon class="st0" points="15.4,70.3 15.4,40.5 9.8,40.5 9.8,31.9 25,31.9 25,70.3 		"/>
		<polygon class="st0" points="33.9,70.3 33.9,40.5 28.2,40.5 28.2,31.9 43.4,31.9 43.4,70.3 		"/>
		<path class="st0" d="M46.8,70.1c6.5-7.7,12-13.7,15.4-17.4c0.7-0.8,2.3-2.3,3.1-3.8c1.9-3.5,1.9-9.3-3-9.7c-3.4-0.3-4.6,4-4.2,6.4
			H46.9c0-8.4,5.5-15.3,14.9-15.3c5.8,0,11.9,2.8,14.4,9c4,10-4.7,16.9-10.9,22.7H77l0,8.1H46.8z"/>
		<path class="st1" d="M44.6,8.8c-7.5,0-11.3,0.3-16.3,0.5c-9.6,0.4-21.5,0.9-26,10.7c7.1,1.4,17.2,1.7,22.7,0.1
			c1-2.2,2.7-2.1,4.6-2.3c6.1,0,8.9,0,15,0c6.1,0,8.9,0,15,0c1.9,0.2,3.6,0.1,4.6,2.3c5.5,1.6,15.6,1.3,22.7-0.1
			c-4.5-9.8-16.4-10.3-26-10.7C55.9,9.1,52.1,8.8,44.6,8.8 M87.3,21.4c-7.1,1.4-16,1.4-22.5,0.2c0.3,1.6,0.8,4.1,3.8,4.6
			c6.2,0.6,18.9,2.4,18.8-2.7C87.4,22.1,87.4,21.9,87.3,21.4 M1.9,21.4c7.1,1.4,16,1.4,22.5,0.2c-0.3,1.6-0.8,4.1-3.8,4.6
			c-6.2,0.6-18.9,2.4-18.8-2.7C1.9,22.1,1.9,21.9,1.9,21.4"/>
		<rect x="1.8" y="74.4" class="st1" width="85.6" height="0.8"/>
		<path class="st0" d="M84.1,86.9c1.8,0,3-0.9,3-2.4v0c0-1.4-1.1-1.9-2.8-2.3c-1-0.2-1.3-0.4-1.3-0.7v0c0-0.3,0.2-0.5,0.7-0.5
			c0.6,0,1.4,0.2,2.1,0.7l1-1.4c-0.8-0.6-1.8-1-3-1c-1.8,0-2.9,1-2.9,2.4v0c0,1.5,1.2,2,2.8,2.3c1,0.2,1.2,0.4,1.2,0.7v0
			c0,0.3-0.3,0.5-0.8,0.5c-0.9,0-1.7-0.3-2.4-0.9l-1.1,1.4C81.6,86.4,82.8,86.9,84.1,86.9 M75.7,82.9v-1.8H77c0.7,0,1.1,0.3,1.1,0.9
			v0c0,0.5-0.4,0.9-1.1,0.9L75.7,82.9L75.7,82.9z M73.6,86.7h2v-2.2h0.9l1.5,2.2h2.4l-1.8-2.6c0.9-0.4,1.5-1.1,1.5-2.3v0
			c0-0.7-0.2-1.3-0.6-1.7c-0.5-0.5-1.3-0.8-2.4-0.8h-3.5L73.6,86.7L73.6,86.7z M67.9,83.8l0.8-2.1l0.8,2.1H67.9L67.9,83.8z
			 M64.6,86.7h2.1l0.5-1.3h2.9l0.5,1.3h2.2l-3.1-7.4h-2L64.6,86.7L64.6,86.7z M58.2,86.7h6V85h-4v-1.2h3.5v-1.6h-3.5v-1.1h3.9v-1.7
			h-6V86.7z M51.7,86.7h5.6v-1.8h-3.6v-5.6h-2L51.7,86.7L51.7,86.7z M46,83.8l0.8-2.1l0.8,2.1H46L46,83.8z M42.7,86.7h2.1l0.5-1.3
			h2.9l0.5,1.3H51l-3.1-7.4h-2L42.7,86.7L42.7,86.7z M37.7,85.1v-1.4h1.6c0.7,0,1,0.3,1,0.7v0c0,0.4-0.4,0.7-1,0.7L37.7,85.1
			L37.7,85.1z M37.7,82.3V81h1.3c0.6,0,0.9,0.2,0.9,0.6v0c0,0.4-0.4,0.6-1,0.6L37.7,82.3L37.7,82.3z M35.7,86.7h3.8
			c1.8,0,2.8-0.8,2.8-2v0c0-1-0.6-1.5-1.5-1.8c0.6-0.3,1.1-0.8,1.1-1.7v0c0-0.5-0.2-0.9-0.5-1.2c-0.4-0.4-1.1-0.7-2-0.7h-3.8
			L35.7,86.7L35.7,86.7z M28.9,86.9c1.8,0,3-0.9,3-2.4v0c0-1.4-1.1-1.9-2.8-2.3c-1-0.2-1.3-0.4-1.3-0.7v0c0-0.3,0.2-0.5,0.7-0.5
			c0.6,0,1.4,0.2,2.1,0.7l1-1.4c-0.8-0.6-1.8-1-3-1c-1.8,0-2.9,1-2.9,2.4v0c0,1.5,1.2,2,2.8,2.3c1,0.2,1.2,0.4,1.2,0.7v0
			c0,0.3-0.3,0.5-0.8,0.5c-0.9,0-1.7-0.3-2.4-0.9l-1.1,1.4C26.3,86.4,27.6,86.9,28.9,86.9 M18.9,86.7h6V85h-4v-1.2h3.5v-1.6H21v-1.1
			h3.9v-1.7h-6V86.7z M12.4,86.7h5.6v-1.8h-3.6v-5.6h-2L12.4,86.7L12.4,86.7z M5.9,86.7h5.6v-1.8H8v-5.6h-2L5.9,86.7L5.9,86.7z
			 M2.5,86.7h2.1v-7.4H2.5V86.7z"/>
	</g>
</g>
</svg>
