<?xml version="1.0" encoding="utf-8"?>
<!-- Generator: Adobe Illustrator 28.7.8, SVG Export Plug-In . SVG Version: 9.03 Build 56881)  -->
<svg version="1.1" id="Capa_2_00000183951579765463011550000013744237747621996469_"
	 xmlns="http://www.w3.org/2000/svg" xmlns:xlink="http://www.w3.org/1999/xlink" x="0px" y="0px" viewBox="0 0 92.3 95.9"
	 style="enable-background:new 0 0 92.3 95.9;" xml:space="preserve">
<style type="text/css">
	.st0{fill:#FFFFFF;}
</style>
<g id="Capa_1-2">
	<g>
		<polygon class="st0" points="17,70.3 17,40.6 11.4,40.6 11.4,32.1 26.6,32.1 26.6,70.3 		"/>
		<polygon class="st0" points="35.4,70.3 35.4,40.6 29.8,40.6 29.8,32.1 45,32.1 45,70.3 		"/>
		<path class="st0" d="M48.3,70.2c6.5-7.7,12-13.7,15.4-17.4c0.7-0.8,2.3-2.3,3-3.7c1.9-3.5,1.9-9.3-2.9-9.7c-3.3-0.3-4.6,4-4.2,6.4
			H48.5c0-8.4,5.5-15.3,14.9-15.3c5.8,0,11.9,2.8,14.4,9c4,10-4.7,16.9-10.8,22.7h11.6l0,8H48.3L48.3,70.2z"/>
		<path class="st0" d="M46.2,9c-7.5,0-11.3,0.3-16.3,0.5c-9.6,0.4-21.4,0.9-26,10.7c7.1,1.4,17.2,1.7,22.7,0.1
			c1-2.2,2.7-2.1,4.6-2.3c6.1,0,8.9,0,15,0c6.1,0,8.9,0,15,0c1.9,0.2,3.6,0.1,4.6,2.3c5.5,1.6,15.6,1.3,22.7-0.1
			C83.9,10.3,72,9.8,62.5,9.5C57.4,9.3,53.7,9,46.2,9 M88.8,21.5c-7.1,1.4-16,1.4-22.4,0.2c0.3,1.6,0.8,4.1,3.8,4.6
			c6.2,0.6,18.8,2.4,18.7-2.7C88.8,22.3,88.8,22.1,88.8,21.5 M3.6,21.5c7.1,1.4,16,1.4,22.4,0.2c-0.3,1.6-0.8,4.1-3.8,4.6
			C16,27,3.3,28.7,3.5,23.7C3.5,22.3,3.5,22.1,3.6,21.5"/>
		<rect x="3.5" y="74.5" class="st0" width="85.4" height="0.8"/>
		<path class="st0" d="M85.6,86.9c1.8,0,3-0.9,3-2.4v0c0-1.4-1-1.9-2.8-2.3c-1-0.2-1.3-0.4-1.3-0.7v0c0-0.3,0.2-0.5,0.7-0.5
			c0.6,0,1.4,0.2,2.1,0.7l1-1.4c-0.8-0.6-1.8-1-3-1c-1.8,0-2.9,1-2.9,2.4v0c0,1.5,1.2,2,2.8,2.3c1,0.2,1.2,0.4,1.2,0.7v0
			c0,0.3-0.3,0.5-0.8,0.5c-0.9,0-1.7-0.3-2.4-0.9l-1.1,1.4C83,86.5,84.3,86.9,85.6,86.9 M77.1,82.9v-1.8h1.3c0.7,0,1.1,0.3,1.1,0.9
			v0c0,0.5-0.4,0.9-1.1,0.9L77.1,82.9L77.1,82.9z M75.1,86.8h2v-2.2H78l1.5,2.2h2.4l-1.8-2.6c0.9-0.4,1.5-1.1,1.5-2.3v0
			c0-0.7-0.2-1.3-0.6-1.7c-0.5-0.5-1.3-0.8-2.4-0.8h-3.5L75.1,86.8L75.1,86.8z M69.4,83.9l0.8-2.1l0.8,2.1H69.4z M66.1,86.8h2.1
			l0.5-1.3h2.8l0.5,1.3h2.2l-3.1-7.4h-2L66.1,86.8L66.1,86.8z M59.7,86.8h6V85h-4v-1.2h3.5v-1.6h-3.5v-1.1h3.9v-1.7h-5.9L59.7,86.8
			L59.7,86.8z M53.2,86.8h5.6V85h-3.6v-5.6h-2L53.2,86.8L53.2,86.8z M47.5,83.9l0.8-2.1l0.8,2.1H47.5z M44.2,86.8h2.1l0.5-1.3h2.8
			l0.5,1.3h2.2l-3.1-7.4h-2L44.2,86.8L44.2,86.8z M39.3,85.1v-1.4h1.6c0.7,0,1,0.3,1,0.7v0c0,0.4-0.4,0.7-1,0.7L39.3,85.1L39.3,85.1
			z M39.3,82.3V81h1.3c0.6,0,0.9,0.2,0.9,0.6v0c0,0.4-0.4,0.6-1,0.6L39.3,82.3L39.3,82.3z M37.3,86.8h3.8c1.8,0,2.8-0.8,2.8-2v0
			c0-1-0.6-1.5-1.5-1.8c0.6-0.3,1.1-0.8,1.1-1.6v0c0-0.5-0.2-0.9-0.5-1.2c-0.4-0.4-1.1-0.7-2-0.7h-3.8L37.3,86.8L37.3,86.8z
			 M30.5,86.9c1.8,0,3-0.9,3-2.4v0c0-1.4-1-1.9-2.8-2.3c-1-0.2-1.3-0.4-1.3-0.7v0c0-0.3,0.2-0.5,0.7-0.5c0.6,0,1.4,0.2,2.1,0.7
			l1-1.4c-0.8-0.6-1.8-1-3-1c-1.8,0-2.9,1-2.9,2.4v0c0,1.5,1.2,2,2.8,2.3c1,0.2,1.2,0.4,1.2,0.7v0c0,0.3-0.3,0.5-0.8,0.5
			c-0.9,0-1.7-0.3-2.4-0.9L27,85.7C27.9,86.5,29.2,86.9,30.5,86.9 M20.5,86.8h6V85h-4v-1.2h3.5v-1.6h-3.5v-1.1h3.9v-1.7h-5.9
			L20.5,86.8L20.5,86.8z M14,86.8h5.6V85h-3.6v-5.6h-2L14,86.8L14,86.8z M7.5,86.8h5.6V85H9.6v-5.6h-2L7.5,86.8L7.5,86.8z M4.1,86.8
			h2v-7.4h-2V86.8z"/>
	</g>
</g>
</svg>
