<?xml version="1.0" encoding="utf-8"?>
<!-- Generator: Adobe Illustrator 28.7.8, SVG Export Plug-In . SVG Version: 9.03 Build 56881)  -->
<svg version="1.1" id="Capa_2_00000056391231239629564470000004691657006792398527_"
	 xmlns="http://www.w3.org/2000/svg" xmlns:xlink="http://www.w3.org/1999/xlink" x="0px" y="0px" viewBox="0 0 90.3 95.7"
	 style="enable-background:new 0 0 90.3 95.7;" xml:space="preserve">
<style type="text/css">
	.st0{fill:#1D1D1B;}
</style>
<g id="Capa_1-2">
	<g>
		<polygon class="st0" points="16,70.2 16,40.5 10.4,40.5 10.4,32 25.6,32 25.6,70.2 		"/>
		<polygon class="st0" points="34.4,70.2 34.4,40.5 28.8,40.5 28.8,32 44,32 44,70.2 		"/>
		<path class="st0" d="M47.3,70.1c6.5-7.7,12-13.7,15.4-17.4c0.7-0.8,2.3-2.3,3-3.7c1.9-3.5,1.9-9.3-2.9-9.7c-3.3-0.3-4.6,4-4.2,6.4
			H47.5c0-8.4,5.5-15.3,14.9-15.3c5.8,0,11.9,2.8,14.4,9c4,10-4.7,16.9-10.8,22.7h11.6l0,8H47.3L47.3,70.1z"/>
		<path class="st0" d="M45.2,8.9c-7.5,0-11.3,0.3-16.3,0.5C19.3,9.7,7.4,10.3,2.9,20c7.1,1.4,17.2,1.7,22.7,0.1
			c1-2.2,2.7-2.1,4.6-2.3c6.1,0,8.9,0,15,0c6.1,0,8.9,0,15,0c1.9,0.2,3.6,0.1,4.6,2.3c5.5,1.6,15.6,1.3,22.7-0.1
			C82.9,10.3,71,9.7,61.5,9.4C56.4,9.2,52.7,8.9,45.2,8.9 M87.8,21.4c-7.1,1.4-16,1.4-22.4,0.2c0.3,1.6,0.8,4.1,3.8,4.6
			c6.2,0.6,18.8,2.4,18.7-2.7C87.8,22.2,87.8,22,87.8,21.4 M2.6,21.4c7.1,1.4,16,1.4,22.4,0.2c-0.3,1.6-0.8,4.1-3.8,4.6
			C15,26.9,2.3,28.6,2.4,23.6C2.5,22.2,2.5,22,2.6,21.4"/>
		<rect x="2.4" y="74.4" class="st0" width="85.4" height="0.8"/>
		<path class="st0" d="M84.6,86.8c1.8,0,3-0.9,3-2.4v0c0-1.4-1-1.9-2.8-2.3c-1-0.2-1.3-0.4-1.3-0.7v0c0-0.3,0.2-0.5,0.7-0.5
			c0.6,0,1.4,0.2,2.1,0.7l1-1.4c-0.8-0.6-1.8-1-3-1c-1.8,0-2.9,1-2.9,2.4v0c0,1.5,1.2,2,2.8,2.3c1,0.2,1.2,0.4,1.2,0.7v0
			c0,0.3-0.3,0.5-0.8,0.5c-0.9,0-1.7-0.3-2.4-0.9l-1.1,1.4C82,86.4,83.2,86.8,84.6,86.8 M76.1,82.8v-1.8h1.3c0.7,0,1.1,0.3,1.1,0.9
			v0c0,0.5-0.4,0.9-1.1,0.9L76.1,82.8L76.1,82.8z M74.1,86.7h2v-2.2H77l1.5,2.2h2.4l-1.8-2.6c0.9-0.4,1.5-1.1,1.5-2.3v0
			c0-0.7-0.2-1.3-0.6-1.7c-0.5-0.5-1.3-0.8-2.4-0.8h-3.5L74.1,86.7L74.1,86.7z M68.4,83.8l0.8-2.1l0.8,2.1H68.4z M65.1,86.7h2.1
			l0.5-1.3h2.8l0.5,1.3h2.2l-3.1-7.4h-2L65.1,86.7L65.1,86.7z M58.7,86.7h6v-1.7h-4v-1.2h3.5v-1.6h-3.5V81h3.9v-1.7h-5.9L58.7,86.7
			L58.7,86.7z M52.2,86.7h5.6v-1.8h-3.6v-5.6h-2L52.2,86.7L52.2,86.7z M46.5,83.8l0.8-2.1l0.8,2.1H46.5z M43.2,86.7h2.1l0.5-1.3h2.8
			l0.5,1.3h2.2l-3.1-7.4h-2L43.2,86.7L43.2,86.7z M38.3,85v-1.4h1.6c0.7,0,1,0.3,1,0.7v0c0,0.4-0.4,0.7-1,0.7L38.3,85L38.3,85z
			 M38.3,82.2v-1.3h1.3c0.6,0,0.9,0.2,0.9,0.6v0c0,0.4-0.4,0.6-1,0.6L38.3,82.2L38.3,82.2z M36.3,86.7h3.8c1.8,0,2.8-0.8,2.8-2v0
			c0-1-0.6-1.5-1.5-1.8c0.6-0.3,1.1-0.8,1.1-1.6v0c0-0.5-0.2-0.9-0.5-1.2c-0.4-0.4-1.1-0.7-2-0.7h-3.8L36.3,86.7L36.3,86.7z
			 M29.4,86.8c1.8,0,3-0.9,3-2.4v0c0-1.4-1-1.9-2.7-2.3c-1-0.2-1.3-0.4-1.3-0.7v0c0-0.3,0.2-0.5,0.7-0.5c0.6,0,1.4,0.2,2.1,0.7
			l1-1.4c-0.8-0.6-1.8-1-3-1c-1.8,0-2.9,1-2.9,2.4v0c0,1.5,1.2,2,2.8,2.3c1,0.2,1.2,0.4,1.2,0.7v0c0,0.3-0.3,0.5-0.8,0.5
			c-0.9,0-1.7-0.3-2.4-0.9L26,85.6C26.9,86.4,28.1,86.8,29.4,86.8 M19.5,86.7h6v-1.7h-4v-1.2h3.5v-1.6h-3.5V81h3.9v-1.7h-5.9
			L19.5,86.7L19.5,86.7z M13,86.7h5.6v-1.8h-3.6v-5.6h-2L13,86.7L13,86.7z M6.5,86.7h5.6v-1.8H8.6v-5.6h-2L6.5,86.7L6.5,86.7z
			 M3.1,86.7h2v-7.4h-2V86.7z"/>
	</g>
</g>
</svg>
