<?xml version="1.0" encoding="utf-8"?>
<!-- Generator: Adobe Illustrator 28.5.0, SVG Export Plug-In . SVG Version: 9.03 Build 54727)  -->
<svg version="1.0" id="Capa_1" xmlns="http://www.w3.org/2000/svg" xmlns:xlink="http://www.w3.org/1999/xlink" x="0px" y="0px"
	 viewBox="0 0 841.89 595.28" style="enable-background:new 0 0 841.89 595.28;" xml:space="preserve">
<g>
	<path d="M448.14,251.64c0,15.02-12.18,27.2-27.2,27.2c-15.02,0-27.2-12.18-27.2-27.2v-43.52c0-1.5,1.22-2.72,2.72-2.72h48.96
		c1.5,0,2.72,1.22,2.72,2.72V251.64z M445.42,202.68h-48.96c-3.01,0-5.44,2.43-5.44,5.44v43.52c0,16.52,13.39,29.92,29.92,29.92
		c16.52,0,29.92-13.4,29.92-29.92v-43.52C450.86,205.11,448.43,202.68,445.42,202.68"/>
	<path d="M444.48,252.72c-0.05,1.95-0.34,3.87-0.85,5.71l-2.25-2.47l-42.87-47.35h3.86l4.97,5.51v-5.51h5.44v11.56l5.44,6.05v-17.61
		h5.44v23.66l5.44,6.06v-29.72h5.44v35.75l5.44,6.05v-41.8h4.52L444.48,252.72z M396.97,219.73c4.76,5.24,41.9,46.13,41.91,46.13
		l0.67,0.73c-0.57,0.73-1.18,1.42-1.84,2.09l-3.16-3.48v6.21c-1.69,1.21-3.51,2.18-5.44,2.91v-15.1l-5.44-5.98v22.42
		c-0.96,0.12-1.94,0.18-2.92,0.18c-0.85,0-1.68-0.05-2.51-0.14v-28.45l-5.44-5.97v33.19c-1.92-0.68-3.75-1.62-5.44-2.78v-36.39
		l-5.44-5.97v37.21c-3.05-3.96-4.77-8.76-4.91-13.83L396.97,219.73z M445.51,207.62h-49.55l0.05,45.62
		c0.29,6.29,2.93,12.16,7.44,16.57c4.65,4.54,10.78,7.04,17.28,7.04s12.63-2.5,17.28-7.04c4.52-4.41,7.15-10.28,7.45-16.57
		L445.51,207.62z"/>
</g>
</svg>
